<?xml version="1.0" encoding="utf-8"?>
<!-- Generator: Adobe Illustrator 25.3.1, SVG Export Plug-In . SVG Version: 6.00 Build 0)  -->
<svg version="1.1" id="Layer_1" xmlns="http://www.w3.org/2000/svg" xmlns:xlink="http://www.w3.org/1999/xlink" x="0px" y="0px"
	 viewBox="0 0 480 480" style="enable-background:new 0 0 480 480;" xml:space="preserve">
<style type="text/css">
	.st0{fill:url(#SVGID_1_);}
	.st1{fill:#080808;}
	.st2{opacity:0.43;}
	.st3{fill:url(#SVGID_2_);}
	.st4{fill:url(#SVGID_3_);}
	.st5{fill:#FFFFFF;}
</style>
<g>
	<g>
		<radialGradient id="SVGID_1_" cx="144.7681" cy="125.4761" r="395.6634" gradientUnits="userSpaceOnUse">
			<stop  offset="0" style="stop-color:#B3B3B3"/>
			<stop  offset="0.0655" style="stop-color:#979797"/>
			<stop  offset="0.1857" style="stop-color:#6B6B6B"/>
			<stop  offset="0.3014" style="stop-color:#484848"/>
			<stop  offset="0.4099" style="stop-color:#2F2F2F"/>
			<stop  offset="0.5084" style="stop-color:#1F1F1F"/>
			<stop  offset="0.588" style="stop-color:#1A1A1A"/>
		</radialGradient>
		<circle class="st0" cx="240" cy="239.49" r="142.82"/>
		
			<ellipse transform="matrix(0.9314 -0.3641 0.3641 0.9314 -70.9044 103.8436)" class="st1" cx="240" cy="240" rx="110.77" ry="110.77"/>
		<path class="st2" d="M226.51,227.11c4.09-3,8.72-5.22,13.61-6.45c3.25-8.42,9.8-15.5,17.81-19.83l-20.78-17.45
			c0,0.02,0,0.04,0.01,0.06c0.46,10.34-4.24,19.88-11.55,26.74c0.54,2.38,0.88,4.83,0.99,7.33c0.15,3.36-0.29,6.62-1.14,9.75
			C225.81,227.21,226.16,227.18,226.51,227.11z"/>
		<linearGradient id="SVGID_2_" gradientUnits="userSpaceOnUse" x1="329.4673" y1="336.8667" x2="230.0955" y2="225.9398">
			<stop  offset="0.0678" style="stop-color:#1A1A1A"/>
			<stop  offset="1" style="stop-color:#4D4D4D"/>
		</linearGradient>
		<path class="st3" d="M350.08,152.24c-1.89,10.35-5.9,20.25-12.3,29.36c0.2,0.35,0.4,0.69,0.58,1.07
			c10.78,22.61,10.85,45.67,8.54,70.13c-2.02,21.36-6.9,38.8-20.14,56.12c-13.21,17.29-30.3,30.9-51.43,37.04
			c-21.93,6.36-44.38,2.39-66.73,2.14c-2.62-0.03-4.91-0.56-6.88-1.46c-14,3.12-28.08,5.81-42.23,8.13
			c22.81,15.99,50.55,25.41,80.51,25.41c77.64,0,140.57-62.94,140.57-140.57C380.57,206.57,369.15,176.23,350.08,152.24z"/>
		<path d="M343.79,136.21C316.07,108.48,279.21,93.21,240,93.21c-39.21,0-76.07,15.27-103.79,42.99
			C108.48,163.93,93.21,200.79,93.21,240c0,39.21,15.27,76.07,42.99,103.79c27.72,27.73,64.59,42.99,103.79,42.99
			c39.21,0,76.07-15.27,103.79-42.99c27.72-27.72,42.99-64.59,42.99-103.79C386.79,200.79,371.52,163.93,343.79,136.21z
			 M239.8,380.57c-0.01,0-0.02,0-0.02,0c-0.01,0-0.02,0-0.02,0c-77.64,0-140.57-62.94-140.57-140.57
			c0-77.64,62.94-140.57,140.57-140.57c0.01,0,0.02,0,0.02,0c0.01,0,0.02,0,0.02,0c77.64,0,140.57,62.94,140.57,140.57
			C380.37,317.64,317.44,380.57,239.8,380.57z"/>
		<radialGradient id="SVGID_3_" cx="304.6877" cy="316.5691" r="231.4071" gradientUnits="userSpaceOnUse">
			<stop  offset="0" style="stop-color:#808080"/>
			<stop  offset="0.0773" style="stop-color:#6A6A6A"/>
			<stop  offset="0.2235" style="stop-color:#484848"/>
			<stop  offset="0.3615" style="stop-color:#2F2F2F"/>
			<stop  offset="0.4868" style="stop-color:#1F1F1F"/>
			<stop  offset="0.588" style="stop-color:#1A1A1A"/>
		</radialGradient>
		<path class="st4" d="M321.11,158.89c-21.67-21.67-50.47-33.6-81.11-33.6c-30.64,0-59.44,11.93-81.11,33.6
			c-21.67,21.67-33.6,50.47-33.6,81.11c0,30.64,11.93,59.44,33.6,81.11c21.67,21.67,50.47,33.6,81.11,33.6
			c30.64,0,59.44-11.93,81.11-33.6c21.66-21.67,33.6-50.47,33.6-81.11C354.71,209.36,342.77,180.56,321.11,158.89z M240,346.09
			c-58.5,0-106.09-47.59-106.09-106.09c0-58.5,47.59-106.09,106.09-106.09c58.5,0,106.09,47.59,106.09,106.09
			C346.09,298.5,298.5,346.09,240,346.09z"/>
		<g>
			<path class="st5" d="M295.52,243.6c-2.69-0.48-10.85-5.28-15.19-4.02c-4.34,1.26-10.27,8.04-11.12,12.38
				c-0.1,0.51-0.4,1.19-0.86,1.98c2.79,1.03,6.41,2.34,6.67,2.34c0.42,0,12.05-2.41,12.05-2.41l4.11,4.39l1.28,7.65l-2.45-6.59
				l-2.93-3.33l-10.35,2.12l-5.53,11.06l-11.38,3.56l10.68-4.84l4.11-10.44l-9.24,0.67c-5.36,6.54-15.21,15.39-22.85,16.88
				c0,0-6,4.46-11.71,4.11c-3.77-0.23-9.43,2.19-14.59,3.76l-1,2.67l5.81,3.62l-8.36-2.41l-1.21-2.74
				c-0.88,0.12-1.71,0.17-2.48,0.12c-6.07-0.39-14.77-3.99-15.22-1.5c-0.46,2.48,3.87,7.75,4.29,9.9
				c0.42,2.15,30.56,6.17,37.74,8.14c7.18,1.97,5.26,0.1,21.49-6.51c16.24-6.61,24.33-3.29,24.33-3.29s15.85-15.5,16.74-20.25
				C299.22,265.87,298.21,244.08,295.52,243.6z"/>
			<path class="st5" d="M308.7,190.04c-2.34-4.02-15.43-1.52-15.43-1.52s-18.57-8.15-25.7-6.33c-5.23,1.34-16.97,4.52-22.87,6.12
				c0,0-4.54,5.17-4.76,5.17c-0.21,0-8.93,5.81-8.93,5.81l2.69,1.15c0,0,2.88,3.07,3.64,3.81c0.1,0.07,0.17,0.12,0.19,0.15
				c0.02,0.04-0.05-0.02-0.19-0.15c-0.92-0.63-5.13-2.76-5.13-2.76l-5.67,1.49l-0.5,4.54l-3.26,4.61c0,0,0.16,3.09,0.2,3.73
				c0.01,0.04,0.01,0.08,0.01,0.1c0,0.05-0.01,0-0.01-0.1c-0.11-0.65-0.98-3.46-0.98-3.73c0-0.28,2.48-4.75,2.55-5.17
				c0.07-0.43,0.99-8.22,1.91-8.79c0.92-0.57,10.56-6.45,10.56-6.45l2.63-4.85c-2.31-3.78-6.53-11.17-7.42-15.95
				c0,0-4.91-3.64-8.13-0.8c-3.23,2.84-5.49,10.83-6.69,16.61c-1.2,5.78-2.17,15.58-3.6,17.33c-1.44,1.75-6.24,9.91-7.16,10.67
				c0,0,1.39,6.97,1.39,7.4c0,0.43-3.54,4.68-3.76,5.17c-0.21,0.5,0.57,3.9,0.57,3.9l-1.42-3.97l3.26-5.31l-1.56-5.69l-3.71-1.36
				c-7.2-0.46-19.85-2.76-25-9.86c0,0-14.75,8.65-16.7,13.51c-1.95,4.86,1.91,38.3,3.66,40.79c1.75,2.49,12.89,2.75,12.89,2.75
				s4.75-5.43,10.75-4.42c6.01,1.01,14.06,4.76,18.44,3.08c4.38-1.67,7.75-1.76,7.75-1.76l17.46,2.35l3.96,9.03
				c0,0,14.24-3.44,20.32-11.69c6.08-8.24,7.5-7.69,8.14-12.04c0.64-4.36,5.4-14.21,10.11-15.01c4.71-0.8,8.9-0.6,8.9-0.6
				s9.51,1.78,17.56-11.53C307.74,206.16,311.04,194.06,308.7,190.04z M173.1,247.42c-4.5,0.82-7.31-7.04-7.61-14.65
				c-0.31-7.61,11.32-16.57,13.39-16.16c2.07,0.41,9.83,9.6,9.84,11.23C188.77,233.68,177.61,246.6,173.1,247.42z M252.97,244.77
				c-1.22,3.88-14.49,12.47-17,12.22c-2.5-0.25-36.27-8-37.24-13.15c-0.97-5.15,7.06-5.41,7.06-5.41s4.92,1.33,18.97-10.77
				c14.04-12.09,22.85-18.17,26.96-17.14c4.11,1.04,9.81,9.39,9.81,9.39S254.19,240.89,252.97,244.77z M280.44,224.56
				c-2.9,1.64-10.84,1-10.84,1s1.59-7.63-1.41-13.44c-3.01-5.81-16.55-9.39-16.55-9.39c-0.13-5.07,8.25-6.77,8.25-6.77
				s10.03,0.78,18.08,0.31c8.05-0.47,12.52,5.45,12.52,7.55C290.49,205.93,283.34,222.92,280.44,224.56z"/>
		</g>
	</g>
</g>
</svg>
