<?xml version="1.0" encoding="utf-8"?>
<!-- Generator: Adobe Illustrator 25.3.1, SVG Export Plug-In . SVG Version: 6.00 Build 0)  -->
<svg version="1.1" id="Layer_1" xmlns="http://www.w3.org/2000/svg" xmlns:xlink="http://www.w3.org/1999/xlink" x="0px" y="0px"
	 viewBox="0 0 480 480" style="enable-background:new 0 0 480 480;" xml:space="preserve">
<style type="text/css">
	.st0{fill:url(#SVGID_1_);}
	.st1{fill:#001C03;}
	.st2{fill:url(#SVGID_2_);}
	.st3{fill:url(#SVGID_3_);}
	.st4{fill:#006602;}
	.st5{fill:#00FF00;}
	.st6{fill:#ABF4AB;}
</style>
<g>
	<g>
		<radialGradient id="SVGID_1_" cx="184.5534" cy="170.6918" r="162.081" gradientUnits="userSpaceOnUse">
			<stop  offset="0" style="stop-color:#06FF00"/>
			<stop  offset="0.2539" style="stop-color:#06FC00"/>
			<stop  offset="0.4051" style="stop-color:#06F400"/>
			<stop  offset="0.5295" style="stop-color:#05E600"/>
			<stop  offset="0.6393" style="stop-color:#05D200"/>
			<stop  offset="0.7395" style="stop-color:#04B800"/>
			<stop  offset="0.8327" style="stop-color:#039700"/>
			<stop  offset="0.9188" style="stop-color:#017200"/>
			<stop  offset="1" style="stop-color:#004700"/>
		</radialGradient>
		<circle class="st0" cx="240" cy="240" r="140.57"/>
		
			<ellipse transform="matrix(0.9314 -0.3641 0.3641 0.9314 -72.478 103.6777)" class="st1" cx="238.77" cy="244.09" rx="110.77" ry="110.77"/>
		<radialGradient id="SVGID_2_" cx="207.3219" cy="208.7742" r="175.6137" gradientUnits="userSpaceOnUse">
			<stop  offset="0" style="stop-color:#06FF00"/>
			<stop  offset="0.2539" style="stop-color:#06FC00"/>
			<stop  offset="0.4051" style="stop-color:#06F400"/>
			<stop  offset="0.5295" style="stop-color:#05E600"/>
			<stop  offset="0.6393" style="stop-color:#05D200"/>
			<stop  offset="0.7395" style="stop-color:#04B800"/>
			<stop  offset="0.8327" style="stop-color:#039700"/>
			<stop  offset="0.9188" style="stop-color:#017200"/>
			<stop  offset="1" style="stop-color:#004700"/>
		</radialGradient>
		<path class="st2" d="M350.08,152.24c-1.89,10.35-5.9,20.25-12.3,29.36c0.2,0.35,0.4,0.69,0.58,1.07
			c10.78,22.61,10.85,45.67,8.54,70.13c-2.02,21.36-6.9,38.8-20.14,56.12c-13.21,17.29-30.3,30.9-51.43,37.04
			c-21.93,6.36-44.38,2.39-66.73,2.14c-2.62-0.03-4.91-0.56-6.88-1.46c-14,3.12-28.08,5.81-42.23,8.13
			c22.81,15.99,50.55,25.41,80.51,25.41c77.64,0,140.57-62.94,140.57-140.57C380.57,206.57,369.15,176.23,350.08,152.24z"/>
		<path d="M343.79,136.21C316.07,108.48,279.21,93.21,240,93.21c-39.21,0-76.07,15.27-103.79,42.99
			C108.48,163.93,93.21,200.79,93.21,240c0,39.21,15.27,76.07,42.99,103.79c27.72,27.73,64.59,42.99,103.79,42.99
			c39.21,0,76.07-15.27,103.79-42.99c27.72-27.72,42.99-64.59,42.99-103.79C386.79,200.79,371.52,163.93,343.79,136.21z
			 M239.8,380.57c-0.01,0-0.02,0-0.02,0c-0.01,0-0.02,0-0.02,0c-77.64,0-140.57-62.94-140.57-140.57
			c0-77.64,62.94-140.57,140.57-140.57c0.01,0,0.02,0,0.02,0c0.01,0,0.02,0,0.02,0c77.64,0,140.57,62.94,140.57,140.57
			C380.37,317.64,317.44,380.57,239.8,380.57z"/>
		<radialGradient id="SVGID_3_" cx="276.9644" cy="294.7865" r="162.8477" gradientUnits="userSpaceOnUse">
			<stop  offset="0" style="stop-color:#06FF00"/>
			<stop  offset="0.2539" style="stop-color:#06FC00"/>
			<stop  offset="0.4051" style="stop-color:#06F400"/>
			<stop  offset="0.5295" style="stop-color:#05E600"/>
			<stop  offset="0.6393" style="stop-color:#05D200"/>
			<stop  offset="0.7395" style="stop-color:#04B800"/>
			<stop  offset="0.8327" style="stop-color:#039700"/>
			<stop  offset="0.9188" style="stop-color:#017200"/>
			<stop  offset="1" style="stop-color:#004700"/>
		</radialGradient>
		<path class="st3" d="M321.11,158.89c-21.67-21.67-50.47-33.6-81.11-33.6c-30.64,0-59.44,11.93-81.11,33.6
			c-21.67,21.67-33.6,50.47-33.6,81.11c0,30.64,11.93,59.44,33.6,81.11c21.67,21.67,50.47,33.6,81.11,33.6
			c30.64,0,59.44-11.93,81.11-33.6c21.66-21.67,33.6-50.47,33.6-81.11C354.71,209.36,342.77,180.56,321.11,158.89z M240,346.09
			c-58.5,0-106.09-47.59-106.09-106.09c0-58.5,47.59-106.09,106.09-106.09c58.5,0,106.09,47.59,106.09,106.09
			C346.09,298.5,298.5,346.09,240,346.09z"/>
	</g>
	<g>
		<path class="st4" d="M294.07,215.88l-44.05,25.43c-0.06,0.03-7.52,4.15-7.52,16.97v38.37c0,0-0.05,17.08,13.63,9.18c0,0,0,0,0,0
			l36.92-21.31c0,0,0,0,0,0c10.12-5.84,9.98-20.15,9.98-20.15V224.5C303.02,211.01,294.07,215.88,294.07,215.88z"/>
		<path class="st5" d="M185.93,215.88l44.05,25.43c0.06,0.03,7.52,4.15,7.52,16.97v38.37c0,0,0.05,17.08-13.63,9.18c0,0,0,0,0,0
			l-36.92-21.31c0,0,0,0,0,0c-10.12-5.84-9.98-20.15-9.98-20.15V224.5C176.98,211.01,185.93,215.88,185.93,215.88z"/>
		<path class="st6" d="M289.64,197.64l-40.4-23.33c-0.02-0.01-3.99-2.28-9.24-2.23c-5.25-0.05-9.22,2.22-9.24,2.23l-40.4,23.33
			c-0.04,0.02-13.19,7.74,0,15.36c0,0,0,0,0,0l35.46,20.47c0.21,0.12,4.46,2.46,10.48,3.23c0,0,1.61,0.44,7.4,0
			c6.02-0.77,10.27-3.11,10.48-3.23L289.64,213c0,0,0,0,0,0C302.83,205.38,289.68,197.66,289.64,197.64z"/>
	</g>
</g>
</svg>
