<?xml version="1.0" encoding="utf-8"?>
<!-- Generator: Adobe Illustrator 25.3.1, SVG Export Plug-In . SVG Version: 6.00 Build 0)  -->
<svg version="1.1" id="Layer_1" xmlns="http://www.w3.org/2000/svg" xmlns:xlink="http://www.w3.org/1999/xlink" x="0px" y="0px"
	 viewBox="0 0 480 480" style="enable-background:new 0 0 480 480;" xml:space="preserve">
<style type="text/css">
	.st0{fill:url(#SVGID_1_);}
	.st1{fill:#1A1A1A;}
	.st2{fill:url(#SVGID_2_);}
	.st3{fill:url(#SVGID_3_);}
	.st4{fill:url(#SVGID_4_);}
	.st5{fill:#58595B;}
	.st6{fill:url(#SVGID_5_);}
</style>
<g>
	<g>
		<radialGradient id="SVGID_1_" cx="155.4984" cy="150.8823" r="285.8705" gradientUnits="userSpaceOnUse">
			<stop  offset="0" style="stop-color:#B3B3B3"/>
			<stop  offset="0.0655" style="stop-color:#979797"/>
			<stop  offset="0.1857" style="stop-color:#6B6B6B"/>
			<stop  offset="0.3014" style="stop-color:#484848"/>
			<stop  offset="0.4099" style="stop-color:#2F2F2F"/>
			<stop  offset="0.5084" style="stop-color:#1F1F1F"/>
			<stop  offset="0.588" style="stop-color:#1A1A1A"/>
		</radialGradient>
		<circle class="st0" cx="240" cy="240.08" r="142.82"/>
		
			<ellipse transform="matrix(0.9314 -0.3641 0.3641 0.9314 -70.9044 103.8436)" class="st1" cx="240" cy="240" rx="110.77" ry="110.77"/>
		<linearGradient id="SVGID_2_" gradientUnits="userSpaceOnUse" x1="215.5963" y1="222.1434" x2="388.2267" y2="360.2706">
			<stop  offset="0" style="stop-color:#4D4D4D"/>
			<stop  offset="0.0385" style="stop-color:#484848"/>
			<stop  offset="0.246" style="stop-color:#2E2E2E"/>
			<stop  offset="0.4351" style="stop-color:#1F1F1F"/>
			<stop  offset="0.588" style="stop-color:#1A1A1A"/>
		</linearGradient>
		<path class="st2" d="M350.08,152.24c-1.89,10.35-5.9,20.25-12.3,29.36c0.2,0.35,0.4,0.69,0.58,1.07
			c10.78,22.61,10.85,45.67,8.54,70.13c-2.02,21.36-6.9,38.8-20.14,56.12c-13.21,17.29-30.3,30.9-51.43,37.04
			c-21.93,6.36-44.38,2.39-66.73,2.14c-2.62-0.03-4.91-0.56-6.88-1.46c-14,3.12-28.08,5.81-42.23,8.13
			c22.81,15.99,50.55,25.41,80.51,25.41c77.64,0,140.57-62.94,140.57-140.57C380.57,206.57,369.15,176.23,350.08,152.24z"/>
		<path d="M343.79,136.21C316.07,108.48,279.21,93.21,240,93.21c-39.21,0-76.07,15.27-103.79,42.99
			C108.48,163.93,93.21,200.79,93.21,240c0,39.21,15.27,76.07,42.99,103.79c27.72,27.73,64.59,42.99,103.79,42.99
			c39.21,0,76.07-15.27,103.79-42.99c27.72-27.72,42.99-64.59,42.99-103.79C386.79,200.79,371.52,163.93,343.79,136.21z
			 M239.8,380.57c-0.01,0-0.02,0-0.02,0c-0.01,0-0.02,0-0.02,0c-77.64,0-140.57-62.94-140.57-140.57
			c0-77.64,62.94-140.57,140.57-140.57c0.01,0,0.02,0,0.02,0c0.01,0,0.02,0,0.02,0c77.64,0,140.57,62.94,140.57,140.57
			C380.37,317.64,317.44,380.57,239.8,380.57z"/>
		<g>
			<linearGradient id="SVGID_3_" gradientUnits="userSpaceOnUse" x1="133.546" y1="260.405" x2="349.0589" y2="260.405">
				<stop  offset="5.376360e-03" style="stop-color:#000000"/>
				<stop  offset="0.1191" style="stop-color:#050505"/>
				<stop  offset="0.4936" style="stop-color:#0E0E0E"/>
				<stop  offset="1" style="stop-color:#111111"/>
			</linearGradient>
			<path class="st3" d="M241.3,167.64c0,0-74.87,88.94-99.65,124.55c0.47,0.81,0.94,1.62,1.32,2.49c2.06,4.66,4.49,8.9,7.22,13.19
				c0.3,0.47,0.58,0.88,0.84,1.25c0.14,0.16,0.32,0.36,0.44,0.5c1.32,1.51,2.62,3.03,4,4.5c3.57,3.79,7.36,7.36,11.33,10.73
				c0.86,0.73,1.79,1.45,2.45,1.95c1.77,1.25,3.53,2.52,5.35,3.71c4.89,3.23,9.95,6.2,15.16,8.87c1.86,0.96,3.76,1.85,5.65,2.75
				c0.26,0.13,0.5,0.24,0.72,0.35c0.43,0.13,0.98,0.29,1.67,0.52c4.62,1.48,9.3,2.63,13.94,3.99c0.15,0.04,0.25,0.08,0.38,0.12
				c1.8,0.02,3.73,0.3,5.48,0.33c5.99,0.12,11.52,1.58,16.4,4.04c1.5,0.31,3,0.62,4.51,0.9c0.74,0.14,1.49,0.26,2.23,0.38
				c-0.71-0.09-1.43-0.19-2.14-0.28c0.19,0.42,3.92,0.27,4.43,0.28c1.2,0.02,2.36,0.17,3.47,0.41c0.35-0.08,0.7-0.14,1.05-0.22
				c7.42-1.74,14.77-3.84,21.98-6.32c3.04-1.04,6.06-2.15,9.05-3.35c0.33-0.22,6.03-2.79,6.81-3.17c5.82-2.87,11.85-5.86,17.21-9.62
				c0.07-0.32,4.3-4.09,4.66-4.45c2.31-2.33,4.49-4.8,6.6-7.31c0.34-0.4,4.23-5.27,4.08-5.02c2.71-3.52,5.4-7.05,8.13-10.56
				c3.93-5.04,7.95-9.96,12.28-14.65C311.32,250.82,241.3,167.64,241.3,167.64z"/>
			<linearGradient id="SVGID_4_" gradientUnits="userSpaceOnUse" x1="227.6126" y1="253.0936" x2="349.0588" y2="253.0936">
				<stop  offset="5.376360e-03" style="stop-color:#000000"/>
				<stop  offset="0.1191" style="stop-color:#050505"/>
				<stop  offset="0.4936" style="stop-color:#0E0E0E"/>
				<stop  offset="1" style="stop-color:#111111"/>
			</linearGradient>
			<path class="st4" d="M288.53,338.55c4.82-2.41,9.67-4.97,14.07-8.06c0.07-0.32,4.3-4.09,4.66-4.45c2.31-2.33,4.49-4.8,6.6-7.31
				c0.34-0.4,4.23-5.27,4.08-5.02c2.71-3.52,5.4-7.05,8.13-10.56c3.93-5.04,7.95-9.96,12.28-14.65
				c-27.03-37.69-97.05-120.87-97.05-120.87s-14.71,37.72,3.43,59.09c18.15,21.37,52.96,36.69,36.29,50.63
				c-21.48,14.86-46.29,12.43-52.96,25.49C223.34,312.12,256.02,332.61,288.53,338.55z"/>
			<g>
				<path class="st5" d="M200.83,292.44c0,0.43-0.28,0.77-0.63,0.77c-0.35,0-0.63-0.35-0.63-0.77c0-0.43,0.28-0.77,0.63-0.77
					C200.54,291.67,200.83,292.01,200.83,292.44z"/>
				<path class="st5" d="M183,251c0,0.43-0.28,0.77-0.63,0.77c-0.35,0-0.63-0.34-0.63-0.77c0-0.43,0.28-0.77,0.63-0.77
					C182.72,250.23,183,250.58,183,251z"/>
				<path class="st5" d="M291.19,239.54c0,0.43-0.28,0.77-0.63,0.77c-0.35,0-0.63-0.35-0.63-0.77c0-0.43,0.28-0.77,0.63-0.77
					C290.9,238.77,291.19,239.11,291.19,239.54z"/>
				<path class="st5" d="M224.38,273.24c0,0.43-0.28,0.77-0.63,0.77c-0.35,0-0.63-0.35-0.63-0.77c0-0.43,0.28-0.77,0.63-0.77
					C224.1,272.47,224.38,272.81,224.38,273.24z"/>
				<path class="st5" d="M188.46,236.21c0,0.32-0.21,0.58-0.47,0.58c-0.26,0-0.47-0.26-0.47-0.58c0-0.32,0.21-0.58,0.47-0.58
					C188.25,235.63,188.46,235.89,188.46,236.21z"/>
				<path class="st5" d="M248.37,218.19c0,0.16-0.11,0.29-0.24,0.29c-0.13,0-0.24-0.13-0.24-0.29c0-0.16,0.11-0.29,0.24-0.29
					C248.26,217.9,248.37,218.03,248.37,218.19z"/>
				<path class="st5" d="M173.83,271.47c0,0.16-0.11,0.29-0.24,0.29c-0.13,0-0.24-0.13-0.24-0.29c0-0.16,0.11-0.29,0.24-0.29
					C173.72,271.18,173.83,271.31,173.83,271.47z"/>
				<path class="st5" d="M254.36,279.8c0,0.16-0.11,0.29-0.24,0.29c-0.13,0-0.24-0.13-0.24-0.29c0-0.16,0.11-0.29,0.24-0.29
					C254.26,279.51,254.36,279.64,254.36,279.8z"/>
				<path class="st5" d="M294.15,317.03c0,0.16-0.11,0.29-0.24,0.29c-0.13,0-0.24-0.13-0.24-0.29c0-0.16,0.11-0.29,0.24-0.29
					C294.05,316.73,294.15,316.86,294.15,317.03z"/>
				<path class="st5" d="M180.22,303.8c0,0.16-0.11,0.29-0.24,0.29c-0.13,0-0.24-0.13-0.24-0.29c0-0.16,0.11-0.29,0.24-0.29
					C180.11,303.51,180.22,303.64,180.22,303.8z"/>
				<path class="st5" d="M166,271.18c0,0.16-0.11,0.29-0.24,0.29c-0.13,0-0.24-0.13-0.24-0.29c0-0.16,0.11-0.29,0.24-0.29
					C165.89,270.89,166,271.02,166,271.18z"/>
				<path class="st5" d="M221.13,221.81c0,0.16-0.11,0.29-0.24,0.29c-0.13,0-0.24-0.13-0.24-0.29c0-0.16,0.11-0.29,0.24-0.29
					C221.02,221.52,221.13,221.65,221.13,221.81z"/>
				<path class="st5" d="M261.71,196.04c0,0.16-0.11,0.29-0.24,0.29c-0.13,0-0.24-0.13-0.24-0.29c0-0.16,0.11-0.29,0.24-0.29
					C261.61,195.75,261.71,195.88,261.71,196.04z"/>
				<path class="st5" d="M307.74,253.94c0,0.16-0.11,0.29-0.24,0.29c-0.13,0-0.24-0.13-0.24-0.29c0-0.16,0.11-0.29,0.24-0.29
					C307.63,253.65,307.74,253.78,307.74,253.94z"/>
				<path class="st5" d="M293.35,256.48c0,0.16-0.11,0.29-0.24,0.29c-0.13,0-0.24-0.13-0.24-0.29c0-0.16,0.11-0.29,0.24-0.29
					C293.25,256.19,293.35,256.32,293.35,256.48z"/>
				<path class="st5" d="M321.55,295.51c0,0.16-0.11,0.29-0.24,0.29c-0.13,0-0.24-0.13-0.24-0.29c0-0.16,0.11-0.29,0.24-0.29
					C321.45,295.21,321.55,295.35,321.55,295.51z"/>
				<path class="st5" d="M284.56,279.51c0,0.16-0.11,0.29-0.24,0.29c-0.13,0-0.24-0.13-0.24-0.29c0-0.16,0.11-0.29,0.24-0.29
					C284.46,279.22,284.56,279.35,284.56,279.51z"/>
				<path class="st5" d="M272.1,239.25c0,0.16-0.11,0.29-0.24,0.29c-0.13,0-0.24-0.13-0.24-0.29c0-0.16,0.11-0.29,0.24-0.29
					C272,238.96,272.1,239.09,272.1,239.25z"/>
				<path class="st5" d="M252.77,251.29c0,0.16-0.11,0.29-0.24,0.29c-0.13,0-0.24-0.13-0.24-0.29c0-0.16,0.11-0.29,0.24-0.29
					C252.66,251,252.77,251.13,252.77,251.29z"/>
				<path class="st5" d="M237.11,195.17c0,0.16-0.11,0.29-0.24,0.29c-0.13,0-0.24-0.13-0.24-0.29c0-0.16,0.11-0.29,0.24-0.29
					C237,194.88,237.11,195.01,237.11,195.17z"/>
				<path class="st5" d="M208.34,245.61c0,0.16-0.11,0.29-0.24,0.29c-0.13,0-0.24-0.13-0.24-0.29c0-0.16,0.11-0.29,0.24-0.29
					C208.23,245.32,208.34,245.45,208.34,245.61z"/>
				<path class="st5" d="M246.77,280.09c0,0.16-0.11,0.29-0.24,0.29c-0.13,0-0.24-0.13-0.24-0.29c0-0.16,0.11-0.29,0.24-0.29
					C246.66,279.8,246.77,279.93,246.77,280.09z"/>
				<path class="st5" d="M257.47,299.68c0,0.43-0.28,0.77-0.63,0.77c-0.35,0-0.63-0.34-0.63-0.77c0-0.43,0.28-0.77,0.63-0.77
					C257.19,298.91,257.47,299.26,257.47,299.68z"/>
				<path class="st5" d="M234.13,329.46c0,0.43-0.28,0.77-0.63,0.77c-0.35,0-0.63-0.35-0.63-0.77c0-0.43,0.28-0.77,0.63-0.77
					C233.85,328.69,234.13,329.04,234.13,329.46z"/>
			</g>
		</g>
		<linearGradient id="SVGID_5_" gradientUnits="userSpaceOnUse" x1="165.5039" y1="161.6352" x2="323.5683" y2="327.9078">
			<stop  offset="0.0678" style="stop-color:#000000"/>
			<stop  offset="1" style="stop-color:#000000"/>
		</linearGradient>
		<path class="st6" d="M321.11,158.89c-21.67-21.67-50.47-33.6-81.11-33.6c-30.64,0-59.44,11.93-81.11,33.6
			c-21.67,21.67-33.6,50.47-33.6,81.11c0,30.64,11.93,59.44,33.6,81.11c21.67,21.67,50.47,33.6,81.11,33.6
			c30.64,0,59.44-11.93,81.11-33.6c21.66-21.67,33.6-50.47,33.6-81.11C354.71,209.36,342.77,180.56,321.11,158.89z M240,346.09
			c-58.5,0-106.09-47.59-106.09-106.09c0-58.5,47.59-106.09,106.09-106.09c58.5,0,106.09,47.59,106.09,106.09
			C346.09,298.5,298.5,346.09,240,346.09z"/>
	</g>
</g>
</svg>
