<?xml version="1.0" standalone="no"?>
<!DOCTYPE svg PUBLIC "-//W3C//DTD SVG 20010904//EN"
 "http://www.w3.org/TR/2001/REC-SVG-20010904/DTD/svg10.dtd">
<svg version="1.0" xmlns="http://www.w3.org/2000/svg"
 width="1421.000000pt" height="1421.000000pt" viewBox="0 0 1421.000000 1421.000000"
 preserveAspectRatio="xMidYMid meet">
<metadata>
Created by potrace 1.14, written by Peter Selinger 2001-2017
</metadata>
<g transform="translate(0.000000,1421.000000) scale(0.100000,-0.100000)"
fill="#000000" stroke="none">
<path d="M734 14201 c-10 -2 -21 -7 -24 -11 -4 -6 -5 -2984 -1 -3025 1 -7 376
-10 1103 -10 l1102 0 0 -5572 0 -5573 21 -1 c29 0 2936 -1 2958 0 16 1 17 202
17 4076 l0 4075 2688 0 2688 0 -1 1483 c0 815 1 1489 3 1497 3 13 132 15 1103
15 725 0 1099 3 1100 10 1 6 2 691 2 1523 1 1002 -1 1512 -8 1513 -72 4 -3028
0 -3032 -5 -4 -4 -7 -688 -7 -1521 0 -1058 -3 -1515 -10 -1516 -40 -5 -1784
-4 -1797 0 -14 5 -15 158 -15 1525 l0 1519 -1477 -1 c-812 0 -1498 -1 -1524
-1 l-48 -1 0 -1522 0 -1523 -910 0 -910 0 0 1523 0 1522 -25 1 c-113 2 -2981
3 -2996 0z"/>
<path d="M8398 5662 c-27 -2 -38 -8 -39 -20 -1 -22 -1 -2830 0 -2862 l1 -26
1448 2 c796 1 1449 2 1452 3 3 0 6 654 6 1451 l0 1450 -146 1 c-800 2 -2693 3
-2722 1z"/>
</g>
</svg>
