<svg width="24" height="24" viewBox="0 0 24 24" fill="none" xmlns="http://www.w3.org/2000/svg">
<path d="M12 24C18.6274 24 24 18.6274 24 12C24 5.37258 18.6274 0 12 0C5.37258 0 0 5.37258 0 12C0 18.6274 5.37258 24 12 24Z" fill="white"/>
<path opacity="0.25" d="M16.4393 14.0831L12.7026 10.4165C12.4864 10.2044 12.2028 10.0995 11.9202 10.1015C11.6375 10.1003 11.3542 10.206 11.1387 10.4187L7.27637 14.2301L5.86008 15.6253L8.43301 18.1499L10.0068 19.6942L11.9303 17.796L13.8591 19.6887L13.9001 19.6482L17.9942 15.608L16.4393 14.0831Z" fill="#122236"/>
<path opacity="0.5" d="M16.4299 8.88069L12.6931 5.13943C12.4769 4.92305 12.1933 4.81596 11.9107 4.81809C11.628 4.81677 11.3447 4.92466 11.1292 5.14166L7.267 9.03044L5.85245 10.4547L8.42547 13.0307L9.99929 14.6064L11.9227 12.6698L13.8516 14.6009L13.8927 14.5596L17.9866 10.4375L16.4299 8.88069Z" fill="#122236"/>
<path d="M16.4331 11.424L12.6962 7.68271C12.4801 7.46633 12.1964 7.35924 11.9138 7.36136C11.6312 7.36005 11.3479 7.46794 11.1323 7.68494L7.27014 11.5737L5.8556 12.998L8.42861 15.574L10.0024 17.1497L11.9258 15.2131L13.8547 17.1442L13.8958 17.1029L17.9898 12.9807L16.4331 11.424ZM11.2149 12.7659L9.97656 14.012L8.95851 12.9927L11.9159 10.015L14.8817 12.9843L13.8477 14.0254L12.5878 12.764C12.2087 12.3836 11.5938 12.3845 11.2149 12.7659Z" fill="#122236"/>
</svg>
