<svg width="24" height="24" viewBox="0 0 24 24" fill="none" xmlns="http://www.w3.org/2000/svg">
<path d="M12 24C18.6274 24 24 18.6274 24 12C24 5.37258 18.6274 0 12 0C5.37258 0 0 5.37258 0 12C0 18.6274 5.37258 24 12 24Z" fill="url(#paint0_linear_1405_181)"/>
<path d="M9.98498 3.97381L9.92368 4.31172L11.1392 4.31744C11.1389 4.40433 11.1035 4.48249 11.0464 4.53901C10.9897 4.5956 10.9108 4.63023 10.8243 4.62984L9.86656 4.62538L9.46985 6.81224L10.4775 6.81695C10.4771 6.9034 10.4417 6.98155 10.3846 7.03808C10.3275 7.09469 10.249 7.12934 10.1625 7.12896L9.41284 7.12547L9.01615 9.3122L9.81568 9.31597C9.8153 9.40247 9.77993 9.48062 9.72282 9.53719C9.66571 9.59381 9.58727 9.62841 9.50038 9.62802L8.95903 9.62551L8.56242 11.8123L9.1535 11.815C9.15311 11.9016 9.1177 11.9797 9.06059 12.0362C9.00388 12.0924 8.92551 12.1275 8.83898 12.1271L8.50537 12.1255L8.10823 14.3123L8.49214 14.3141C8.49175 14.4007 8.45593 14.4792 8.39923 14.5353C8.34212 14.5919 8.26328 14.6265 8.17679 14.6262L8.05156 14.6255C8.02297 14.6629 8.02195 14.789 8.01264 14.8408C7.99663 14.9305 7.98047 15.0198 7.96399 15.1095C7.93062 15.2887 7.89556 15.4673 7.85521 15.6446C7.77696 15.987 7.6778 16.3247 7.58631 16.6638C7.58592 16.665 7.58594 16.6658 7.5855 16.667C7.32641 17.6282 7.52375 18.6017 8.12762 19.3938C8.73116 20.186 9.64843 20.6422 10.644 20.6469L13.6471 20.6609C14.8562 20.6666 15.9485 20.0015 16.4977 18.9239C16.8217 18.2885 16.9264 17.5525 16.7856 16.8531C16.6925 16.3905 16.4889 15.9768 16.2275 15.5978C15.9668 15.2197 15.6492 14.8762 15.3269 14.5526C15.3269 14.5526 13.732 12.9402 13.7222 12.9303C13.6297 12.8368 13.524 12.7543 13.4502 12.6441C13.4335 12.6193 13.4183 12.5923 13.4138 12.5628C13.3959 12.4434 13.5749 12.3801 13.6606 12.3485C13.7668 12.3092 13.8689 12.2565 13.964 12.1952C14.1526 12.0737 14.3156 11.9131 14.4401 11.7263C14.5119 11.6188 14.5551 11.5036 14.6122 11.3892L14.6259 11.3616C14.6222 11.3571 14.6321 11.3485 14.6285 11.3435C14.6356 11.323 14.6422 11.3024 14.6482 11.2814C14.6674 11.216 14.6829 11.1489 14.6936 11.0802C14.6944 11.0777 14.6949 11.0752 14.6948 11.0723C13.9828 10.4861 14.2614 9.85137 14.3138 9.74781C14.3064 9.74162 14.2991 9.73535 14.2917 9.72916L14.2597 9.68903L14.2564 9.6857L14.2548 9.68368C14.2335 9.66132 14.2113 9.6402 14.1887 9.61951C14.181 9.61247 14.1732 9.60504 14.1654 9.59839C14.1313 9.56773 14.096 9.53878 14.0595 9.51141C14.0567 9.5085 14.0529 9.50643 14.0497 9.50395C13.7611 9.29042 13.3999 9.17044 13.013 9.18603C12.9723 9.18783 12.9323 9.191 12.8927 9.19568C12.3697 9.25505 11.899 9.57257 11.6459 10.0336C11.1569 10.9244 11.4444 12.0644 11.9989 12.8529C12.2539 13.215 12.5643 13.518 12.8734 13.8309C13.2187 14.1802 13.5705 14.5221 13.9158 14.8705L14.327 15.2857L14.315 15.2943C14.3207 15.2943 14.9118 16.1152 14.9547 16.1772C15.2813 16.6496 15.5482 17.0829 15.4712 17.6936C15.4442 17.906 15.3786 18.1129 15.2813 18.3036C14.9628 18.9282 14.3543 19.2986 13.6536 19.2953L10.6505 19.2812C10.0821 19.2786 9.55845 19.0178 9.21366 18.566C8.86893 18.1136 8.75593 17.5397 8.90432 16.9909C9.08127 16.3363 9.26217 15.7126 9.39581 15.0479C9.47972 14.631 9.56411 14.2145 9.64802 13.7976C9.75937 13.2444 9.87118 12.6914 9.98248 12.1382C10.1107 11.5015 10.2394 10.8649 10.3676 10.2281C10.5021 9.561 10.6366 8.89386 10.7712 8.22673C10.9011 7.58184 11.031 6.93692 11.1609 6.29198C11.276 5.72236 11.3908 5.15238 11.5054 4.58274C11.5945 4.14116 11.6834 3.69957 11.7729 3.25796C11.8252 2.99742 11.8779 2.73653 11.9302 2.47607C11.9319 2.46819 11.9548 2.33362 11.9588 2.33358C10.9905 2.32906 10.1579 3.02052 9.98498 3.97381V3.97381ZM13.2213 10.0101C13.2222 9.82342 13.3758 9.67133 13.5624 9.67217C13.7234 9.67295 13.8576 9.78646 13.8911 9.93696C13.8972 9.96129 13.8999 9.98682 13.8998 10.0133C13.899 10.1838 13.7731 10.3241 13.609 10.3476C13.5929 10.3496 13.5761 10.3507 13.5592 10.3506C13.5435 10.3506 13.5281 10.3495 13.513 10.3473C13.3481 10.324 13.2205 10.1817 13.2213 10.0101" fill="white"/>
<path d="M15.4167 9.30935C15.4135 9.30939 15.4103 9.30941 15.4071 9.3094C15.2036 9.30885 15.0092 9.38247 14.8304 9.48465C14.8295 9.48502 14.8292 9.48544 14.8283 9.48625C14.7659 9.52102 14.706 9.56032 14.6477 9.60037C14.5659 9.65727 14.5068 9.69693 14.4408 9.72706C14.4267 9.73241 14.3694 9.75479 14.3355 9.76784C14.3286 9.76119 14.3212 9.75456 14.3138 9.74793C14.2614 9.8515 13.9828 10.4862 14.6948 11.0725C14.6965 11.0634 14.6978 11.0539 14.699 11.0449C14.7882 11.0087 14.8823 10.9811 14.98 10.9639C14.98 10.9639 14.9796 10.9643 14.9791 10.9651L14.9804 10.9638C15.0431 10.9522 15.1078 10.945 15.1733 10.9425L15.8292 10.9159C15.9215 10.9213 16.0129 10.93 16.1043 10.9416C16.0924 10.9299 16.0801 10.9179 16.0674 10.9063C16.0226 10.8653 15.9751 10.828 15.925 10.7948C15.8995 10.7774 15.8732 10.7612 15.846 10.7463C15.7039 10.6649 15.546 10.6089 15.3859 10.574C15.3662 10.5697 15.3468 10.5656 15.327 10.5622C15.2975 10.5563 15.2678 10.5512 15.2373 10.5469C15.0657 10.5214 14.8919 10.5136 14.7172 10.5131L14.6851 10.513C14.6562 10.5132 14.627 10.5135 14.5977 10.5139C14.5891 10.5138 14.5808 10.5142 14.5722 10.5141C14.6 10.4743 14.629 10.4353 14.6588 10.3976C14.7251 10.3146 14.798 10.2367 14.8762 10.1654C15.0611 9.99407 15.276 9.8554 15.5071 9.75596C15.7346 9.65784 15.9787 9.59756 16.2268 9.58306C16.0851 9.43534 15.8603 9.35679 15.6402 9.32562C15.5639 9.31482 15.4882 9.30972 15.4167 9.30935" fill="white"/>
<path d="M14.1392 10.5081C13.9987 10.206 14.0953 9.76898 14.1611 9.59482C14.1772 9.60653 14.2323 9.65717 14.2533 9.67824C14.2744 9.69932 14.3192 9.74996 14.3324 9.76605C14.306 9.80996 14.2165 9.94607 14.227 10.2797C14.2375 10.6134 14.5431 10.9295 14.6968 11.0481L14.6924 11.0744C14.5709 11.0144 14.2797 10.8101 14.1392 10.5081Z" fill="white"/>
<defs>
<linearGradient id="paint0_linear_1405_181" x1="4.93934" y1="2.69597" x2="19.1723" y2="21.4511" gradientUnits="userSpaceOnUse">
<stop stop-color="#00B3EE"/>
<stop offset="1" stop-color="#009FEE"/>
</linearGradient>
</defs>
</svg>
