<?xml version="1.0" encoding="utf-8"?>
<!-- Generator: Adobe Illustrator 25.3.1, SVG Export Plug-In . SVG Version: 6.00 Build 0)  -->
<svg version="1.1" id="Layer_1" xmlns="http://www.w3.org/2000/svg" xmlns:xlink="http://www.w3.org/1999/xlink" x="0px" y="0px"
	 viewBox="0 0 480 480" style="enable-background:new 0 0 480 480;" xml:space="preserve">
<style type="text/css">
	.st0{fill:url(#SVGID_1_);}
	.st1{fill-rule:evenodd;clip-rule:evenodd;fill:#6B0337;}
	.st2{fill:url(#SVGID_2_);}
	.st3{fill:url(#SVGID_3_);}
	.st4{fill:#FC88FF;}
</style>
<g>
	<g>
		
			<radialGradient id="SVGID_1_" cx="122.3014" cy="147.1247" r="249.789" fx="124.8843" fy="148.909" gradientUnits="userSpaceOnUse">
			<stop  offset="0" style="stop-color:#FF00BF"/>
			<stop  offset="0.1" style="stop-color:#F900BB"/>
			<stop  offset="0.23" style="stop-color:#E900B0"/>
			<stop  offset="0.3767" style="stop-color:#CE009E"/>
			<stop  offset="0.5355" style="stop-color:#A90085"/>
			<stop  offset="0.7041" style="stop-color:#790065"/>
			<stop  offset="0.8785" style="stop-color:#3F003E"/>
			<stop  offset="0.9113" style="stop-color:#330036"/>
		</radialGradient>
		<circle class="st0" cx="240" cy="240.01" r="142.82"/>
		<circle class="st1" cx="239.78" cy="240.23" r="108.78"/>
		<radialGradient id="SVGID_2_" cx="335.3771" cy="332.2089" r="240.9235" gradientUnits="userSpaceOnUse">
			<stop  offset="0.0567" style="stop-color:#420033"/>
			<stop  offset="0.1737" style="stop-color:#470036"/>
			<stop  offset="0.3121" style="stop-color:#55003D"/>
			<stop  offset="0.4614" style="stop-color:#6D0049"/>
			<stop  offset="0.6183" style="stop-color:#8E005B"/>
			<stop  offset="0.7811" style="stop-color:#B90071"/>
			<stop  offset="0.9466" style="stop-color:#ED008C"/>
			<stop  offset="1" style="stop-color:#FF0095"/>
		</radialGradient>
		<path class="st2" d="M350.08,152.24c-1.89,10.35-5.9,20.25-12.3,29.36c0.2,0.35,0.4,0.69,0.58,1.07
			c10.78,22.61,10.85,45.67,8.54,70.13c-2.02,21.36-6.9,38.8-20.14,56.12c-13.21,17.29-30.3,30.9-51.43,37.04
			c-21.93,6.36-44.38,2.39-66.73,2.14c-2.62-0.03-4.91-0.56-6.88-1.46c-14,3.12-28.08,5.81-42.23,8.13
			c22.81,15.99,50.55,25.41,80.51,25.41c77.64,0,140.57-62.94,140.57-140.57C380.57,206.57,369.15,176.23,350.08,152.24z"/>
		<path d="M343.79,136.21C316.07,108.48,279.21,93.21,240,93.21c-39.21,0-76.07,15.27-103.79,42.99
			C108.48,163.93,93.21,200.79,93.21,240c0,39.21,15.27,76.07,42.99,103.79c27.72,27.73,64.59,42.99,103.79,42.99
			c39.21,0,76.07-15.27,103.79-42.99c27.72-27.72,42.99-64.59,42.99-103.79C386.79,200.79,371.52,163.93,343.79,136.21z
			 M239.8,380.57c-0.01,0-0.02,0-0.02,0c-0.01,0-0.02,0-0.02,0c-77.64,0-140.57-62.94-140.57-140.57
			c0-77.64,62.94-140.57,140.57-140.57c0.01,0,0.02,0,0.02,0c0.01,0,0.02,0,0.02,0c77.64,0,140.57,62.94,140.57,140.57
			C380.37,317.64,317.44,380.57,239.8,380.57z"/>
		<radialGradient id="SVGID_3_" cx="338.3517" cy="336.3714" r="317.0989" gradientUnits="userSpaceOnUse">
			<stop  offset="0" style="stop-color:#FF0095"/>
			<stop  offset="0.1818" style="stop-color:#C9007C"/>
			<stop  offset="0.3861" style="stop-color:#940063"/>
			<stop  offset="0.5772" style="stop-color:#6A0050"/>
			<stop  offset="0.7492" style="stop-color:#4C0042"/>
			<stop  offset="0.8958" style="stop-color:#3A0039"/>
			<stop  offset="1" style="stop-color:#330036"/>
		</radialGradient>
		<path class="st3" d="M321.11,158.89c-21.67-21.67-50.47-33.6-81.11-33.6c-30.64,0-59.44,11.93-81.11,33.6
			c-21.67,21.67-33.6,50.47-33.6,81.11c0,30.64,11.93,59.44,33.6,81.11c21.67,21.67,50.47,33.6,81.11,33.6
			c30.64,0,59.44-11.93,81.11-33.6c21.66-21.67,33.6-50.47,33.6-81.11C354.71,209.36,342.77,180.56,321.11,158.89z M240,346.09
			c-58.5,0-106.09-47.59-106.09-106.09c0-58.5,47.59-106.09,106.09-106.09c58.5,0,106.09,47.59,106.09,106.09
			C346.09,298.5,298.5,346.09,240,346.09z"/>
		<g>
			<g>
				<path class="st4" d="M296.96,212.65c-3.58-5.88-47.3-45.82-52.28-50.35l-0.33-0.3l-40.73,28.96l-20.6,31.51l28.65-20.03
					l27.8-11.58l36.11,35.41L231.05,292l-47.32-19.21l46.69,43.29l0.25,0.23l30.23-11.01l0.22-0.08l0.1-0.21
					C265.25,296.2,300.67,218.74,296.96,212.65z"/>
				<polygon class="st4" points="226.1,249.46 243.12,242.45 225.36,239.87 219.64,222.69 210.12,239.43 193.71,249.42 
					210.2,250.64 217.69,271.19 				"/>
			</g>
			<g>
				<path d="M296.49,212.94c-3.67-6.03-52.18-50.23-52.18-50.23l-40.37,28.7l-18.91,28.98l26.42-18.46l28.14-11.72l36.7,35.99
					l-45.04,66.49l-44.95-18.25l44.49,41.25l29.91-10.89C260.7,304.78,300.16,218.97,296.49,212.94z"/>
				<polygon points="224.95,240.36 219.51,224.03 210.53,239.83 195.46,249 210.6,250.12 217.7,269.63 225.67,249.04 241.05,242.7 
									"/>
			</g>
		</g>
	</g>
</g>
</svg>
