<?xml version="1.0" encoding="utf-8"?>
<!-- Generator: Adobe Illustrator 25.3.1, SVG Export Plug-In . SVG Version: 6.00 Build 0)  -->
<svg version="1.1" id="Layer_1" xmlns="http://www.w3.org/2000/svg" xmlns:xlink="http://www.w3.org/1999/xlink" x="0px" y="0px"
	 viewBox="0 0 480 480" style="enable-background:new 0 0 480 480;" xml:space="preserve">
<style type="text/css">
	.st0{fill:url(#SVGID_1_);}
	.st1{fill:url(#SVGID_2_);}
	.st2{opacity:0.18;}
	.st3{fill:url(#SVGID_3_);}
	.st4{fill:#FFF100;}
	.st5{fill:#FFBC00;}
</style>
<g>
	<radialGradient id="SVGID_1_" cx="96.657" cy="103.0589" r="248.3126" gradientUnits="userSpaceOnUse">
		<stop  offset="0.2414" style="stop-color:#FF0066"/>
		<stop  offset="0.3455" style="stop-color:#DB0060"/>
		<stop  offset="0.4989" style="stop-color:#AD0057"/>
		<stop  offset="0.6457" style="stop-color:#890051"/>
		<stop  offset="0.7821" style="stop-color:#6E004C"/>
		<stop  offset="0.9042" style="stop-color:#5F0049"/>
		<stop  offset="1" style="stop-color:#590048"/>
	</radialGradient>
	<circle class="st0" cx="240" cy="240.01" r="143.32"/>
	<ellipse transform="matrix(0.9314 -0.3641 0.3641 0.9314 -70.9044 103.8436)" cx="240" cy="240" rx="110.77" ry="110.77"/>
	<linearGradient id="SVGID_2_" gradientUnits="userSpaceOnUse" x1="326.7268" y1="333.8074" x2="227.3549" y2="222.8806">
		<stop  offset="0" style="stop-color:#600049"/>
		<stop  offset="0.1215" style="stop-color:#6A004B"/>
		<stop  offset="0.3266" style="stop-color:#840050"/>
		<stop  offset="0.5902" style="stop-color:#AF0057"/>
		<stop  offset="0.8991" style="stop-color:#EA0062"/>
		<stop  offset="1" style="stop-color:#FF0066"/>
	</linearGradient>
	<path class="st1" d="M350.08,152.24c-1.89,10.35-5.9,20.25-12.3,29.36c0.2,0.35,0.4,0.69,0.58,1.07
		c10.78,22.61,10.85,45.67,8.54,70.13c-2.02,21.36-6.9,38.8-20.14,56.12c-13.21,17.29-30.3,30.9-51.43,37.04
		c-21.93,6.36-44.38,2.39-66.73,2.14c-2.62-0.03-4.91-0.56-6.88-1.46c-14,3.12-28.08,5.81-42.23,8.13
		c22.81,15.99,50.55,25.41,80.51,25.41c77.64,0,140.57-62.94,140.57-140.57C380.57,206.57,369.15,176.23,350.08,152.24z"/>
	<path d="M343.79,136.21C316.07,108.48,279.21,93.21,240,93.21c-39.21,0-76.07,15.27-103.79,42.99
		C108.48,163.93,93.21,200.79,93.21,240c0,39.21,15.27,76.07,42.99,103.79c27.72,27.73,64.59,42.99,103.79,42.99
		c39.21,0,76.07-15.27,103.79-42.99c27.72-27.72,42.99-64.59,42.99-103.79C386.79,200.79,371.52,163.93,343.79,136.21z
		 M239.8,380.57c-0.01,0-0.02,0-0.02,0c-0.01,0-0.02,0-0.02,0c-77.64,0-140.57-62.94-140.57-140.57
		c0-77.64,62.94-140.57,140.57-140.57c0.01,0,0.02,0,0.02,0c0.01,0,0.02,0,0.02,0c77.64,0,140.57,62.94,140.57,140.57
		C380.37,317.64,317.44,380.57,239.8,380.57z"/>
	<path class="st2" d="M326.47,171.65c-1.32-3-2-6.21-1.92-9.31c-0.1-0.1-0.19-0.2-0.28-0.3c-21.67-21.66-50.47-33.6-81.11-33.6
		c-30.64,0-59.44,11.93-81.11,33.6c-21.67,21.67-33.6,50.47-33.6,81.11c0,30.1,11.54,58.42,32.49,79.95
		c4.52-1.04,9.46-0.43,13.06,2.28c0.22-0.46,0.45-0.91,0.71-1.35c-22.99-19.46-37.64-48.47-37.64-80.88
		c0-58.5,47.59-106.09,106.09-106.09c37.74,0,70.92,19.82,89.73,49.59C330.97,181.67,328.7,176.74,326.47,171.65z"/>
	<linearGradient id="SVGID_3_" gradientUnits="userSpaceOnUse" x1="161.8336" y1="165.2961" x2="327.6856" y2="323.8011">
		<stop  offset="0" style="stop-color:#590048"/>
		<stop  offset="0.6454" style="stop-color:#600049"/>
		<stop  offset="0.6883" style="stop-color:#67004A"/>
		<stop  offset="0.7511" style="stop-color:#7B004E"/>
		<stop  offset="0.826" style="stop-color:#9B0054"/>
		<stop  offset="0.9104" style="stop-color:#C7005C"/>
		<stop  offset="1" style="stop-color:#FF0066"/>
	</linearGradient>
	<path class="st3" d="M321.11,158.89c-21.67-21.67-50.47-33.6-81.11-33.6c-30.64,0-59.44,11.93-81.11,33.6
		c-21.67,21.67-33.6,50.47-33.6,81.11c0,30.64,11.93,59.44,33.6,81.11c21.67,21.67,50.47,33.6,81.11,33.6
		c30.64,0,59.44-11.93,81.11-33.6c21.66-21.67,33.6-50.47,33.6-81.11C354.71,209.36,342.77,180.56,321.11,158.89z M240,346.09
		c-58.5,0-106.09-47.59-106.09-106.09c0-58.5,47.59-106.09,106.09-106.09c58.5,0,106.09,47.59,106.09,106.09
		C346.09,298.5,298.5,346.09,240,346.09z"/>
	<g>
		<g>
			<path class="st4" d="M254.23,162.33L254.23,162.33l-63.32,98.28l42.91-0.57l-12.7,60.32l0,0c0,0-3.33,15.51,5.04,2.53
				c0,0,0,0,0,0l62.48-96.99l-42.91,0.57l13.12-62.35C261.66,150.81,254.23,162.33,254.23,162.33z"/>
			<path class="st5" d="M217.21,243.86l40.75,0.06l-36.22,83.91c0.86-0.37,2.23-1.83,4.32-5.08c0,0,0,0,0,0l62.48-96.99l-42.91,0.57
				l13.12-62.35c1.05-4.97,0.66-6.48-0.22-6.42L217.21,243.86z"/>
		</g>
		<g>
			<path d="M223.45,329.45c-1.03,0.72-2.03,0.93-3.06,0.5c-0.87-0.36-3.17-1.31-1.3-10.03l12.16-57.77l-44.19,0.59l65.43-101.55
				c4.27-6.61,6.42-5.72,7.23-5.39c2.32,0.95,2.18,4.05,1.19,8.73l-12.58,59.8l44.19-0.59l-64.59,100.25
				C226.28,326.56,224.84,328.47,223.45,329.45z M194.77,258.48l41.63-0.55l-13.24,62.87c-0.25,1.18-0.44,2.46-0.54,3.54
				c0.47-0.62,1.06-1.45,1.78-2.57l60.38-93.73l-41.63,0.55l13.66-64.9c0.16-0.75,0.28-1.39,0.36-1.93
				c-0.41,0.53-0.83,1.12-1.2,1.69L194.77,258.48z"/>
		</g>
	</g>
</g>
</svg>
